<svg id="_x33_0" enable-background="new 0 0 64 64" height="512" viewBox="0 0 64 64" width="512" xmlns="http://www.w3.org/2000/svg"><path d="m56.993 42.211c1.327-3.24 2.007-6.668 2.007-10.211 0-13.722-10.469-25.333-24-26.835v-4.165l-5.492 4.119c-13.767 1.264-24.508 13.01-24.508 26.881 0 1.121.084 2.245.222 3.354-2.565 2.016-4.222 5.138-4.222 8.646 0 4.264 2.444 7.961 6 9.786v4.214c0 1.654 1.346 3 3 3h4c1.654 0 3-1.346 3-3v-3.571c4.445 2.982 9.598 4.571 15 4.571h11.521c2.019 2.441 5.07 4 8.479 4 6.065 0 11-4.935 11-11 0-4.267-2.447-7.965-6.007-9.789zm-23.068-35.138c12.939.984 23.075 11.934 23.075 24.927 0 3.284-.631 6.461-1.861 9.462-.995-.297-2.048-.462-3.139-.462-.358 0-.712.02-1.061.054 1.346-2.814 2.061-5.902 2.061-9.054 0-10.843-8.126-19.827-18.901-20.896l-1.099-.109v2.005l-5.333-4 5.333-4v2.002zm7.126 43.927h-9.051c-3.501 0-6.885-.96-9.85-2.764.546-1.305.85-2.735.85-4.236 0-.338-.021-.67-.051-1h20.051v-20h-6v18h-2v-14h-6v14h-2v-10h-6v6.695c-1.802-2.564-4.664-4.329-7.948-4.642-.019-.352-.052-.703-.052-1.053 0-9.744 7.219-17.783 16.846-18.866l5.154 3.866v-3.766c9.196 1.447 16 9.328 16 18.766 0 3.399-.912 6.717-2.625 9.627-3.985 1.397-6.93 5.018-7.324 9.373zm-18.051-10v-8h2v8zm10 0h-2v-12h2zm6 0v-16h2v16zm-32-9c0-11.584 8.091-21.566 19.029-24.272l-1.696 1.272 3.291 2.469c-9.626 2.016-16.624 10.447-16.624 20.531 0 .348.034.698.052 1.048-1.41.121-2.741.512-3.949 1.117-.062-.72-.103-1.443-.103-2.165zm-4 12c0-4.962 4.038-9 9-9s9 4.038 9 9c0 3.909-2.51 7.235-6 8.475v-6.659c.314.112.648.184 1 .184 1.654 0 3-1.346 3-3s-1.346-3-3-3c-1.302 0-2.402.839-2.816 2h-2.369c-.413-1.161-1.513-2-2.815-2-1.654 0-3 1.346-3 3s1.346 3 3 3c.352 0 .686-.072 1-.184v6.659c-3.49-1.24-6-4.566-6-8.475zm8 0h2v8.941c-.329.037-.662.059-1 .059s-.671-.022-1-.059zm4-1c0-.551.449-1 1-1s1 .449 1 1-.449 1-1 1-1-.449-1-1zm-6 0c0 .551-.449 1-1 1s-1-.449-1-1 .449-1 1-1 1 .449 1 1zm5 16h-4c-.551 0-1-.449-1-1v-3.426c.955.271 1.959.426 3 .426s2.045-.155 3-.426v3.426c0 .551-.449 1-1 1zm18-2c-4.895 0-9.57-1.406-13.625-4.053 1.116-.798 2.078-1.795 2.831-2.945 3.256 1.957 6.962 2.998 10.794 2.998h9.051c.13 1.43.537 2.779 1.164 4zm15.068 2.519.304-2.434c.291-2.329 2.281-4.085 4.628-4.085s4.337 1.756 4.628 4.085l.304 2.434c-1.418.934-3.111 1.481-4.932 1.481s-3.514-.547-4.932-1.481zm2.932-10.519c0-1.103.897-2 2-2s2 .897 2 2-.897 2-2 2-2-.897-2-2zm8.749 8.934-.137-1.096c-.285-2.285-1.716-4.184-3.67-5.15.651-.712 1.058-1.65 1.058-2.688 0-2.206-1.794-4-4-4s-4 1.794-4 4c0 1.038.407 1.976 1.057 2.687-1.954.966-3.384 2.865-3.67 5.15l-.137 1.096c-1.395-1.585-2.25-3.659-2.25-5.933 0-4.962 4.038-9 9-9s9 4.038 9 9c0 2.274-.855 4.348-2.251 5.934z"/></svg>